<?xml version="1.0" standalone="no"?>
<!DOCTYPE svg PUBLIC "-//W3C//DTD SVG 20010904//EN"
 "http://www.w3.org/TR/2001/REC-SVG-20010904/DTD/svg10.dtd">
<svg version="1.0" xmlns="http://www.w3.org/2000/svg"
 width="700.000000pt" height="700.000000pt" viewBox="0 0 700.000000 700.000000"
 preserveAspectRatio="xMidYMid meet">
<metadata>
Created by potrace 1.11, written by Peter Selinger 2001-2013
</metadata>
<g transform="translate(0.000000,700.000000) scale(0.100000,-0.100000)"
fill="#000000" stroke="none">
<path d="M1641 6530 c-5 -11 -7 -555 -2 -615 1 -7 56 -10 151 -10 l150 0 0
167 c0 153 2 168 18 168 22 1 3039 1 3074 0 l28 0 2 -167 3 -168 148 0 c92 0
147 4 148 10 7 86 2 618 -6 623 -5 4 -842 7 -1858 7 -1635 0 -1850 -2 -1856
-15z"/>
<path d="M2905 5793 c-344 -42 -629 -265 -734 -574 -37 -108 -41 -130 -46
-264 -6 -175 19 -300 87 -439 125 -255 380 -431 689 -473 30 -4 106 -7 169 -6
328 4 619 166 772 429 79 135 116 280 116 454 1 436 -279 772 -719 863 -60 13
-263 19 -334 10z m266 -558 c74 -25 159 -110 184 -184 21 -63 24 -186 7 -248
-28 -95 -120 -187 -215 -214 -57 -17 -173 -14 -225 5 -138 50 -213 161 -214
317 -1 175 87 297 242 335 61 15 155 10 221 -11z"/>
<path d="M314 5759 c-2 -3 148 -385 333 -847 l337 -842 272 0 271 0 73 183
c39 100 78 196 85 212 7 17 31 77 54 135 23 58 46 114 51 125 5 11 41 101 80
200 39 99 75 189 80 200 22 49 250 625 250 632 0 5 -134 8 -297 8 l-298 0
-108 -295 c-260 -707 -239 -651 -242 -648 -2 2 -78 208 -170 458 -92 250 -171
462 -175 470 -7 13 -52 15 -300 15 -161 0 -293 -3 -296 -6z"/>
<path d="M3914 5761 c-2 -2 -4 -111 -4 -242 l0 -237 203 -1 c111 0 209 0 217
0 14 -1 15 -72 15 -603 l0 -603 288 -3 287 -2 0 605 0 605 33 0 c17 1 115 2
217 3 l184 2 1 233 c0 129 -2 237 -5 241 -5 7 -1429 9 -1436 2z"/>
<path d="M5440 5715 c-1 -63 -1 -1487 0 -1578 l0 -67 627 2 627 3 1 238 0 237
-70 1 c-38 0 -191 1 -340 2 l-270 2 -1 73 0 72 241 0 240 0 0 215 c0 185 -2
215 -15 216 -8 1 -116 2 -240 3 l-225 1 -1 73 c-1 47 2 72 10 73 6 0 159 1
341 2 l329 2 1 233 c0 129 -2 237 -5 241 -3 4 -285 7 -627 6 l-623 0 0 -50z"/>
<path d="M1635 3770 c0 -126 2 -150 15 -151 8 -1 845 -2 1859 -3 1540 -1 1844
1 1849 13 4 10 7 233 3 279 -1 9 -381 12 -1863 12 l-1863 0 0 -150z"/>
<path d="M2 1985 l3 -1530 3498 0 3497 0 0 1531 0 1530 -3500 0 -3500 0 2
-1531z m6684 1226 c8 -1 11 -344 10 -1227 l-1 -1226 -3165 0 c-1741 1 -3179 1
-3196 1 l-31 1 -1 1208 c0 664 1 1216 3 1227 4 20 11 20 3187 18 1751 0 3188
-2 3194 -2z"/>
<path d="M4920 2804 c-97 -16 -103 -18 -179 -44 -213 -72 -368 -204 -464 -395
-34 -68 -61 -147 -72 -212 -42 -251 -18 -470 71 -646 104 -209 285 -350 530
-416 268 -71 687 -36 914 77 l55 27 1 425 c0 234 -1 430 -3 435 -4 13 -675 16
-683 4 -3 -4 -5 -79 -5 -165 l0 -158 93 1 92 1 0 -84 c0 -60 -4 -84 -12 -85
-7 0 -22 -2 -33 -5 -11 -2 -42 -4 -70 -5 -263 -3 -388 117 -386 371 0 80 0 82
21 149 15 48 95 137 145 163 27 14 88 33 140 44 26 6 234 5 262 0 11 -3 43 -8
70 -12 57 -9 47 -7 102 -23 49 -14 121 -47 173 -79 l33 -21 0 267 0 267 -65
32 c-73 36 -174 69 -240 79 -25 3 -70 10 -100 14 -82 12 -305 8 -390 -6z"/>
<path d="M1274 2778 c-3 -4 -4 -385 -3 -848 l2 -840 281 2 281 3 0 228 c0 248
-4 229 55 229 52 0 58 -3 78 -44 93 -197 175 -367 187 -388 l14 -25 291 -3
290 -2 -38 77 c-22 43 -59 119 -82 168 -23 50 -67 138 -96 197 l-53 106 49 32
c112 72 204 214 228 355 4 22 7 96 6 165 -1 108 -4 136 -27 203 -43 124 -100
201 -196 266 -96 65 -198 101 -336 117 -79 9 -926 11 -931 2z m812 -448 c25
-11 54 -30 64 -42 38 -46 46 -158 15 -218 -32 -63 -104 -89 -242 -90 -72 0
-83 2 -84 18 -5 97 -3 330 3 343 10 23 184 16 244 -11z"/>
<path d="M2913 2782 l-23 -3 0 -845 0 -844 628 2 627 3 2 237 1 238 -341 2
-342 3 2 58 c0 31 1 64 2 72 1 13 35 15 241 15 l240 0 0 215 c0 198 -1 215
-17 216 -10 0 -119 1 -243 2 l-225 2 2 65 c1 36 2 68 2 73 1 4 154 7 340 7
l339 0 -1 241 -2 242 -605 1 c-333 0 -615 0 -627 -2z"/>
</g>
</svg>
