<svg id="Layer_1" width="577.63" height="577.63" data-name="Layer 1" version="1.1"><defs id="defs4"><style id="style2">.cls-1{fill:#231f20}</style></defs><path id="path6" d="M25.22 101.97h49.6l28.8 78.4 28.8-78.4h49.6l-56 139.8h-44.8z" class="cls-1" style="fill:#fff;fill-opacity:1"/><path id="path8" d="M212.32 235.56a69.43 69.43 0 0 1-27.3-25.7q-10-16.5-10-37.9t10-38a69.18 69.18 0 0 1 27.3-25.8q17.29-9.2 38.7-9.2a80.74 80.74 0 0 1 38.5 9.2 69.18 69.18 0 0 1 27.3 25.8q10 16.61 10 38t-10 37.9a69.43 69.43 0 0 1-27.3 25.7 80.74 80.74 0 0 1-38.5 9.2q-21.4.01-38.7-9.2zm58.5-43q7.8-7.61 7.8-20.6 0-12.99-7.8-20.6-7.8-7.6-19.8-7.6-12.19 0-20 7.6-7.81 7.6-7.8 20.6 0 13 7.9 20.6 7.9 7.6 19.9 7.6 12 .01 19.8-7.6z" class="cls-1" style="fill:#fff;fill-opacity:1"/><path id="path10" d="M358.62 141.77h-35.8v-39.8h119v39.8h-35.8v100h-47.4z" class="cls-1" style="fill:#fff;fill-opacity:1"/><path id="path12" d="M448.82 101.97h103.6v39.8h-56.2v12.2h39.8v35.8h-39.8v12.2h56.2v39.8h-103.6z" class="cls-1" style="fill:#fff;fill-opacity:1"/><path id="path14" d="M105.02 347.97h67.2q26 0 41.2 13 15.2 13 15.2 37.8 0 15.6-6.2 26.5a43.85 43.85 0 0 1-17.6 17.1l22 45.4h-47.8l-18.4-38.21h-9v38.2h-46.6zm57.2 66.2q18.19 0 18.2-15.4.01-15.4-18.2-15.4h-10.6v30.8z" class="cls-1" style="fill:#fff;fill-opacity:1"/><path id="path16" d="M238.62 347.97h103.6v39.8h-56.2v12.2h39.8v35.8h-39.8v12.2h56.2v39.8h-103.6z" class="cls-1" style="fill:#fff;fill-opacity:1"/><path id="path18" d="M381.52 482.07a61.89 61.89 0 0 1-26.9-25.2q-9.41-16.5-9.4-38.9 0-22.6 9.4-39a62.71 62.71 0 0 1 26.9-25.2q17.51-8.81 41.1-8.8a125.72 125.72 0 0 1 27.2 2.59 78.48 78.48 0 0 1 21.8 8.4v44.4a55.32 55.32 0 0 0-19.5-9.2 102.12 102.12 0 0 0-25.3-2.8q-15.4 0-24.5 7.7t-9.1 21.9q0 15.4 7.4 23.3t24 7.9a30.35 30.35 0 0 0 10.4-1.6v-13.2h-15.4v-27.2h57v71.8q-20.59 11.8-54 11.8-23.59.01-41.1-8.69z" class="cls-1" style="fill:#fff;fill-opacity:1"/><path id="rect20" d="M12.5 299.94h552.63v227.63H12.5z" style="fill:none;stroke:#fff;stroke-width:25px;stroke-miterlimit:10;stroke-opacity:1"/><path id="polygon22" d="M442.54 0H135.09v52.85h25V25h257.45v27.85h25z" class="cls-1" style="fill:#fff;fill-opacity:1" transform="translate(0 37.56)"/><path id="polygon24" d="M442.54 216.67H135.09v25h307.45z" class="cls-1" style="fill:#fff;fill-opacity:1" transform="translate(0 37.56)"/></svg>